# xmcd
#
# Track frame offsets: 
#        150
#        20996
#        34956
#        53520
#        70220
#        90980
#        101979
#        115890
#        129121
#        145607
#
# Disc length: 2024 seconds
#
# Revision: 0
# Processed by: cddbd v1.5.2PL0 Copyright (c) Steve Scherf et al.
# Submitted via: ExactAudioCopy v0.99pb5
#
DISCID=8307e60a
DTITLE=The Love Language - Libraries
DYEAR=2010
DGENRE=Blues
TTITLE0=Pedals
TTITLE1=Brittany's Back
TTITLE2=This Blood Is Our Own
TTITLE3=Summer Dust
TTITLE4=Blue Angel
TTITLE5=Heart To Tell
TTITLE6=Anthophobia
TTITLE7=Horophones
TTITLE8=Wilmont
TTITLE9=This Room
EXTD=
EXTT0=
EXTT1=
EXTT2=
EXTT3=
EXTT4=
EXTT5=
EXTT6=
EXTT7=
EXTT8=
EXTT9=
PLAYORDER=
